<?xml version="1.0" encoding="utf-8"?>
<!-- Generator: Adobe Illustrator 24.0.0, SVG Export Plug-In . SVG Version: 6.00 Build 0)  -->
<svg version="1.1" id="Capa_1" xmlns="http://www.w3.org/2000/svg" xmlns:xlink="http://www.w3.org/1999/xlink" x="0px" y="0px"
	 viewBox="0 0 1300 1300" style="enable-background:new 0 0 1300 1300;" xml:space="preserve">
<g transform="translate(0.000000,1300.000000) scale(0.100000,-0.100000)">
	<path d="M6394,2787l-41-63l109-72c61-41,115-71,121-69c28,11,344.7,586.9,351,598c4.5,9,92,161,173,346l58,132l170,157
		c94,86,253,239,355,339c242,239,257,252,278,237c307-216,674-229,1064-37c252,124,523,351,666,558c195,282,326,675,386,1157
		c27,216,35,444,31,491c-4,55-23,89-67,122c-22,16-43,19-157,18c-299-1-693-57-961-137c-321-95-577-229-755-396
		c-211-197-389-460-474-703c-111-312-87-619,64-849c25-38,45-72,45-75c0-6-44-52-342-360c-98-101-178-181-178-179s16,60,35,129
		c75,263,117,510,136,799c14,225-32,694-67,854c-50,229-123,440-230,665c-30,63-52,116-50,118s42-7,87-20c188-56,343-78,542-79
		c278,0,479,49,727,178c219,114,290,179,312,287c15,73,4,129-52,260c-126,294-280,495-512,669c-258,195-621,339-991,394l-118,18
		l99,100c332,337,525,670,603,1037c26,125,36,356,20,485c-16,127-59,330-78,369c-22,44-82,104-128,127c-52,27-143,33-280,19
		c-213-23-391-74-566-161c-100-49-404-285-453-340c-23-24-64-69-92-100c-106-115-249-331-342-518l-46-93l-34,68
		c-19,37-86,168-164,292c-164,262-404,506-635,645c-205,123-422,189-708,216c-122,11-137,11-180,1c-76-19-144-72-179-140
		c-24-46-33-79-68-256c-30-149-32-432-4-580c26-143,77-290,151-440c107-218,258-425,453-621l101-102l-62-11c-34-5-93-15-130-21
		c-38-6-128-26-200-44c-541-137-952-435-1172-848c-181-341-169-485,53-621c285-175,489-242,792-262c320-21,742,84,1102,273
		c49,25,90,44,92,41c2-2-5-51-15-109c-72-418-39-836,90-1160c38-93,118-238,178-322c115-159,346-374,435-404c61-20,157-16,210,10
		c43,20,184,141,272,231c289,296,445,713,446,1189c0,99,2,134-5,216c-6,76-24,209-41,313c-9,50,7,48,47-8c17-24,59-85,83-122
		c56-86,174-312,220-421c109-255,179-537,207-836c14-155,7-502-15-656c-77-552-293-1131-638-1707 M4394,10134
		c245-38,407-107,603-255c197-150,397-399,527-658c23-45,68-136,97-204c87-205,165-460,204-666c8-47,17-86,18-88c2-1,12,43,21,99
		c58,328,231,767,411,1045c138,212,333,417,495,519c205,131,375,189,620,213c58,5,108,7,112,3c12-13,47-195,59-309
		c20-188-12-403-91-600c-25-62-43-101-85-177c-208-377-611-757-1067-1006c-64-35-116-65-115-66s45,5,97,12c164,24,541,29,720,10
		c503-54,872-201,1140-453c109-103,190-209,252-328c49-95,98-211,98-230c0-14-189-122-286-163c-334-140-794-114-1202,70
		c-36,16-113,50-150,68c-246,125-497,300-709,496c-51,47-93,84-93,81c0-2,22-51,49-108c90-192,167-423,216-649c15-69,39-211,45-255
		c41-324,9-646-88-895c-77-194-456-589-456-589s-271.8,257.2-318.8,327.2c-42,64-61.2,92.8-95.2,163.8c-166,347-191,792-72,1293
		c51,214,140,468,225,638c25,49,45,90,45,91c0,2-26-22-57-52c-386-366-875-640-1308-732c-145-31-389-38-526-16
		c-122,20-253,63-364,118c-70,35-173,97-198,119c-11,8,56,167,108,259c178,314,488,541,901,660c115,32,266,65,355,75
		c30,4,65,9,79,11c14,3,102,9,195,14c181,10,433,0,588-23c48-7,87-12,87-11s-50,30-112,64c-564,316-1008,789-1167,1243
		c-80,230-96,470-47,711c15,71,29,133,32,138C4194,10155,4283,10152,4394,10134z M9840,6412c0-11-7-90-15-178
		c-48-498-161-877-344-1150c-69-104-224-258-348-347c-85-60-239-146-314-173c-161-59-335-78-460-50c-78,17-191,65-204,86
		c-5,8,11,31,46,64c80,75,497,510,635,662c255,280,394,451,394,485c0,18-2,19-30,4c-97-50-497-408-975-873l-209-204l-21,26
		c-33,41-75,160-87,248c-37,258,110,597,381,880c141,148,259,230,452,314c257,112,638,193,1014,217c28,2,58,4,68,5
		S9840,6423,9840,6412z"/>
</g>
</svg>
